# xmcd CD database file
#
# Track frame offsets:
#	150
#	23187
#	45525
#	58252
#	92460
#	105210
#	125705
#	143530
#	175705
#	195580
#	212160
#	252612
#	265705
#
# Disc length: 4174 seconds
#
# Revision: 0
# Processed by: cddbd v1.5.2PL0 Copyright (c) Steve Scherf et al.
# Submitted via: CDex 1.51
#
DISCID=b0104c0d
DTITLE=Furiopolis - Dornröschenwecker
DYEAR=2005
DGENRE=Jazz
TTITLE0=Fuchs, du hast den Groove gestohlen
TTITLE1=Dreispitz
TTITLE2=Vogelehe
TTITLE3=Aristokratendrama
TTITLE4=Dornröschenwecker
TTITLE5=Alle Vöglein sind schon weg
TTITLE6=Bier da?
TTITLE7=Frau Luna
TTITLE8=Das Wandern
TTITLE9=Sieben Affen
TTITLE10=Eisenbahn
TTITLE11=Die Getränke sind frei
TTITLE12=Der Augustin
EXTD=YEAR: 2005
EXTT0=
EXTT1=
EXTT2=
EXTT3=
EXTT4=
EXTT5=
EXTT6=
EXTT7=
EXTT8=
EXTT9=
EXTT10=
EXTT11=
EXTT12=
PLAYORDER=
